<svg width="13" height="13" viewBox="0 0 13 13" fill="none" xmlns="http://www.w3.org/2000/svg">
<g id="Icon">
<path id="Vector" d="M6.49999 11.9166C7.23666 11.9166 7.94083 11.7758 8.61249 11.4941C9.25527 11.2197 9.82763 10.8315 10.3296 10.3295C10.8315 9.8276 11.2197 9.25524 11.4942 8.61246C11.7758 7.94079 11.9167 7.23663 11.9167 6.49996C11.9167 5.76329 11.7758 5.05913 11.4942 4.38746C11.2197 3.74468 10.8315 3.17232 10.3296 2.67038C9.82763 2.16843 9.25527 1.78024 8.61249 1.50579C7.94083 1.22413 7.23666 1.08329 6.49999 1.08329C5.76333 1.08329 5.05916 1.22413 4.38749 1.50579C3.74472 1.78024 3.17236 2.16843 2.67041 2.67038C2.16847 3.17232 1.78027 3.74468 1.50583 4.38746C1.22416 5.05913 1.08333 5.76329 1.08333 6.49996C1.08333 7.23663 1.22416 7.94079 1.50583 8.61246C1.78027 9.25524 2.16847 9.8276 2.67041 10.3295C3.17236 10.8315 3.74472 11.2197 4.38749 11.4941C5.05916 11.7758 5.76333 11.9166 6.49999 11.9166Z" fill="#00FF00"/>
</g>
</svg>
