<svg width="20" height="21" viewBox="0 0 20 21" fill="none" xmlns="http://www.w3.org/2000/svg">
<path d="M5.26668 16.0033C5.04446 15.8588 4.80557 15.6311 4.55001 15.32L4.16668 14.87C4.14446 14.8255 4.1389 14.8144 4.15001 14.8366C3.96112 14.6033 3.80001 14.4255 3.66668 14.3033C3.53335 14.1811 3.40557 14.0977 3.28335 14.0533C3.06112 13.9755 2.90001 13.8311 2.80001 13.62C2.70001 13.4088 2.6889 13.195 2.76668 12.9783C2.84446 12.7616 2.9889 12.6061 3.20001 12.5116C3.41112 12.4172 3.62223 12.4088 3.83335 12.4866C4.14446 12.5866 4.42223 12.7422 4.66668 12.9533C4.90001 13.1533 5.16668 13.4366 5.46668 13.8033C5.44446 13.7811 5.44446 13.7866 5.46668 13.82L5.81668 14.2533C5.97223 14.4311 6.09446 14.5533 6.18335 14.62C6.37223 14.7422 6.69446 14.7811 7.15001 14.7366C7.17223 14.4255 7.22779 14.12 7.31668 13.82C6.0389 13.5088 5.08335 12.9366 4.45001 12.1033C3.78335 11.2255 3.45001 10.02 3.45001 8.48662C3.45001 7.4644 3.7389 6.55329 4.31668 5.75329C4.11668 4.90885 4.20557 4.01996 4.58335 3.08662C4.67223 2.84218 4.84446 2.68107 5.10001 2.60329C5.15557 2.59218 5.21112 2.58107 5.26668 2.56996C5.62223 2.5144 6.02779 2.55329 6.48335 2.68662C6.98335 2.84218 7.52779 3.10885 8.11668 3.48662C8.85001 3.30885 9.60001 3.21996 10.3667 3.21996C11.1333 3.21996 11.8778 3.30885 12.6 3.48662C13.1889 3.10885 13.7333 2.84218 14.2333 2.68662C14.6889 2.55329 15.0945 2.5144 15.45 2.56996C15.5167 2.58107 15.5778 2.59218 15.6333 2.60329C15.8778 2.69218 16.05 2.85329 16.15 3.08662C16.5167 4.01996 16.6 4.90885 16.4 5.75329C16.9889 6.54218 17.2833 7.45329 17.2833 8.48662C17.2833 10.02 16.9445 11.2255 16.2667 12.1033C15.6333 12.9366 14.6778 13.5088 13.4 13.82C13.5111 14.1755 13.5667 14.5588 13.5667 14.97L13.55 17.2366C13.7167 17.27 13.8583 17.345 13.975 17.4616C14.0917 17.5783 14.1667 17.72 14.2 17.8866C14.2445 18.1088 14.2028 18.3172 14.075 18.5116C13.9472 18.7061 13.7667 18.8255 13.5333 18.87C13.2333 18.9255 12.9556 18.9033 12.7 18.8033C12.4445 18.7033 12.2445 18.545 12.1 18.3283C11.9556 18.1116 11.8833 17.8644 11.8833 17.5866L11.9 14.97C11.9 14.6922 11.8667 14.4561 11.8 14.2616C11.7333 14.0672 11.65 13.9255 11.55 13.8366C11.3722 13.6811 11.275 13.4922 11.2583 13.27C11.2417 13.0477 11.3028 12.8505 11.4417 12.6783C11.5806 12.5061 11.7667 12.4033 12 12.37C12.8445 12.2811 13.5222 12.1033 14.0333 11.8366C14.5667 11.5477 14.9639 11.1366 15.225 10.6033C15.4861 10.07 15.6167 9.3644 15.6167 8.48662C15.6167 7.70885 15.3611 7.04218 14.85 6.48662C14.7389 6.37551 14.6695 6.2394 14.6417 6.07829C14.6139 5.91718 14.6278 5.7644 14.6833 5.61996C14.85 5.21996 14.8778 4.76996 14.7667 4.26996C14.3222 4.40329 13.8056 4.66996 13.2167 5.06996C13.0056 5.2144 12.7722 5.25329 12.5167 5.18662C11.8278 4.98662 11.1083 4.88662 10.3583 4.88662C9.60835 4.88662 8.8889 4.98662 8.20001 5.18662C7.95557 5.25329 7.72223 5.2144 7.50001 5.06996C6.91112 4.66996 6.39446 4.40885 5.95001 4.28662C5.8389 4.77551 5.86668 5.21996 6.03335 5.61996C6.0889 5.7644 6.10279 5.91718 6.07501 6.07829C6.04723 6.2394 5.97779 6.37551 5.86668 6.48662C5.36668 7.04218 5.11668 7.70885 5.11668 8.48662C5.11668 9.3644 5.24446 10.07 5.50001 10.6033C5.75557 11.1366 6.15001 11.5477 6.68335 11.8366C7.18335 12.1033 7.86112 12.2811 8.71668 12.37C8.95001 12.4033 9.13335 12.5061 9.26668 12.6783C9.40001 12.8505 9.46112 13.0477 9.45001 13.27C9.4389 13.4922 9.34446 13.6811 9.16668 13.8366C9.07779 13.9144 9.00001 14.0533 8.93335 14.2533C8.84446 14.4866 8.80001 14.7255 8.80001 14.97V17.5866C8.80001 17.8644 8.73057 18.1116 8.59168 18.3283C8.45279 18.545 8.25835 18.7033 8.00835 18.8033C7.75835 18.9033 7.47779 18.9255 7.16668 18.87C6.94446 18.8255 6.76668 18.7088 6.63335 18.52C6.50001 18.3311 6.45557 18.1255 6.50001 17.9033C6.52223 17.7366 6.59446 17.5922 6.71668 17.47C6.8389 17.3477 6.97779 17.27 7.13335 17.2366V16.4033C6.36668 16.4588 5.74446 16.3255 5.26668 16.0033Z" fill="#9F9F9F"/>
</svg>
